<?xml version="1.0" standalone="no"?>
<!DOCTYPE svg PUBLIC "-//W3C//DTD SVG 20010904//EN"
 "http://www.w3.org/TR/2001/REC-SVG-20010904/DTD/svg10.dtd">
<svg version="1.0" xmlns="http://www.w3.org/2000/svg"
 width="512.000000pt" height="512.000000pt" viewBox="0 0 512.000000 512.000000"
 preserveAspectRatio="xMidYMid meet">
<metadata>
Created by potrace 1.14, written by Peter Selinger 2001-2017
</metadata>
<g transform="translate(0.000000,512.000000) scale(0.100000,-0.100000)"
fill="#000000" stroke="none">
<path d="M690 5111 c-83 -26 -139 -73 -183 -155 l-22 -41 0 -2355 0 -2355 23
-43 c33 -63 70 -100 127 -131 l50 -26 1933 -3 1934 -2 29 21 c54 38 59 61 59
254 0 162 -2 177 -20 195 -25 25 -25 32 0 72 20 33 20 52 20 2258 0 1760 -3
2230 -13 2250 -7 13 -28 35 -46 47 l-34 23 -1916 -1 c-1054 0 -1927 -4 -1941
-8z"/>
</g>
</svg>
